<svg version="1.1" id="Layer_1" xmlns="http://www.w3.org/2000/svg" xmlns:xlink="http://www.w3.org/1999/xlink" x="0px" y="0px" viewBox="1400.8 -111.9 338 340" style="enable-background:new 1400.8 -111.9 338 340;" xml:space="preserve">
 <g id="D_4logos">
  <g id="Layer_7">
   <path d="M1699.5,203l7.9-20.8l7.9,20.8H1699.5z M1715.7,170.3h-16.5l-23.1,56.5h14.3l5.3-13.8h23.5l5.3,13.8h14.3L1715.7,170.3z
			 M1599.3,217c-9.3,0-16.8-8.4-16.8-18.8s7.5-18.8,16.8-18.8c9.3,0,16.8,8.4,16.8,18.8S1608.6,217,1599.3,217 M1599.3,168.4
			c-16.5,0-29.8,13.4-29.8,29.8s13.4,29.8,29.8,29.8s29.8-13.4,29.8-29.8c0,0,0,0,0,0C1629.1,181.7,1615.8,168.4,1599.3,168.4
			 M1481.5,217c-9.3,0-16.8-8.4-16.8-18.8s7.5-18.8,16.8-18.8s16.8,8.4,16.8,18.8S1490.8,217,1481.5,217 M1481.5,168.4
			c-16.5,0-29.8,13.4-29.8,29.8c0,16.5,13.4,29.8,29.8,29.8c16.5,0,29.8-13.4,29.8-29.8C1511.4,181.7,1498,168.4,1481.5,168.4
			C1481.5,168.4,1481.5,168.4,1481.5,168.4 M1555.3,170.3l-14.6,22.9l-14.6-22.9h-14.3l22.6,35.4v21.1h12.6v-21.1l22.6-35.4H1555.3z
			 M1679.1,170.3h-48.3v10.8h17.9v45.7h12.6v-45.7h17.8L1679.1,170.3z M1400.8,181.1h17.9v45.7h12.6v-45.7h17.8v-10.8h-48.3V181.1z">
   </path>
   <path d="M1548.7,3c0-0.9,0-1.8,0-2.7c-24.4-3.6-42-13.6-42-25.2c0-0.5,0-1,0.1-1.6c-6.2,7.5-9.8,16.2-9.8,25.5
			c0,26.5,29,48.2,66,50.4C1554.7,43.1,1548.7,24.8,1548.7,3z">
   </path>
   <path d="M1569.4-32.9c-5.5,0-10.2,8.6-12.1,20.7c3.9,0.4,7.9,0.5,12.1,0.5s8.3-0.2,12.1-0.5C1579.7-24.3,1574.9-32.9,1569.4-32.9z
			">
   </path>
   <path d="M1569.4,1.9c-4.5,0-8.8-0.2-13-0.6c0.3,17.3,6,31,13,31s12.7-13.7,13-31C1578.2,1.7,1573.9,1.9,1569.4,1.9z">
   </path>
   <path d="M1549.9-13.1c2.8-19,10.5-32.6,19.6-32.6s16.7,13.6,19.6,32.6c17.2-2.7,29.2-8.8,29.2-15.9c0-9.6-21.8-17.4-48.8-17.4
			s-48.8,7.8-48.8,17.4C1520.6-21.9,1532.7-15.8,1549.9-13.1z">
   </path>
   <path d="M1632.1-24.9c0,11.7-17.5,21.6-42,25.2c0,0.9,0,1.8,0,2.7c0,21.7-6,40.1-14.3,46.4c37-2.3,66-24,66-50.4
			c0-9.3-3.6-18-9.8-25.5C1632.1-25.9,1632.1-25.4,1632.1-24.9z">
   </path>
   <path d="M1456.5-111.9v226h226v-226H1456.5z M1569.4,55.9c-46.8,0-84.7-24.5-84.7-54.8c0-21.5,19.2-40.1,47.1-49.1
			c10.5-3.4,23.5-5.4,37.7-5.4s27.2,2,37.7,5.4c27.9,9,47.1,27.6,47.1,49.1C1654.2,31.3,1616.2,55.9,1569.4,55.9L1569.4,55.9z">
   </path>
  </g>
 </g>
</svg>